<svg width="190" height="185" viewBox="0 0 190 185" fill="none" xmlns="http://www.w3.org/2000/svg">
<path d="M141.5 184.584H189.5L135.5 93.0837C135.5 93.0837 116.5 61.5837 103.5 42.5837C92.9673 27.1897 82 15.0352 71 7.58368C67.2294 5.02946 65.2934 3.10281 61 1.58368C56.1822 -0.121 53.1071 -0.101919 48 0.0836778C39.6639 0.386618 27.5 6.08368 27.5 6.08368C27.5 6.08368 16.5292 12.0132 10 16.5837C5 20.0837 0 19.5837 0 19.5837V46.5837C0 46.5837 20.3253 42.7641 33.5 41.5837C47.1194 40.3635 55 38.4098 68.5 40.5837C77 41.9524 43.5 84.0837 141.5 165.084C146.756 169.428 141.5 184.584 141.5 184.584Z" fill="white"/>
</svg>
