<svg width="6" height="12" viewBox="0 0 6 12" fill="none" xmlns="http://www.w3.org/2000/svg">
<path d="M5.32164 2.82725C5.32164 2.02288 4.91952 1.3061 4.30752 0.886426C4.15018 0.781535 3.92285 0.903866 3.92285 1.09621V2.2677C3.92285 2.7747 3.50318 3.1944 2.99615 3.1944C2.48912 3.1944 2.06945 2.77473 2.06945 2.2677V1.11366C2.06945 0.921321 1.84211 0.798994 1.68478 0.903879C1.07275 1.341 0.670654 2.04034 0.670654 2.84471C0.670654 3.77141 1.21266 4.5582 1.98202 4.94287V10.2058C1.98202 10.7654 2.4366 11.22 2.99615 11.22C3.5557 11.22 4.01028 10.7654 4.01028 10.2058V4.92538C4.77964 4.54071 5.32164 3.75389 5.32164 2.82722V2.82725Z" fill="#B0BFE5"/>
</svg>
